<svg width="202" height="48" viewBox="0 0 202 48" fill="none" xmlns="http://www.w3.org/2000/svg">
<path d="M68.1356 34.0747C66.645 34.0747 65.2886 33.6934 64.0666 32.9307C62.8533 32.168 61.887 31.0544 61.1676 29.5897C60.4483 28.125 60.0886 26.344 60.0886 24.2467C60.0886 22.1407 60.4613 20.351 61.2066 18.8777C61.952 17.4044 62.9573 16.282 64.2226 15.5107C65.4966 14.7307 66.918 14.3407 68.4866 14.3407C69.7866 14.3407 70.8873 14.5574 71.7886 14.9907C72.6986 15.4154 73.4353 15.9657 73.9986 16.6417C74.5706 17.3177 74.9823 18.0284 75.2336 18.7737C75.4936 19.519 75.6236 20.2124 75.6236 20.8537C75.6236 20.8797 75.6236 20.9057 75.6236 20.9317C75.6236 20.9577 75.6236 20.9837 75.6236 21.0097H72.2956C72.2956 20.9837 72.2956 20.9577 72.2956 20.9317C72.2956 20.9057 72.2956 20.8797 72.2956 20.8537C72.2956 20.403 72.2176 19.961 72.0616 19.5277C71.9056 19.0944 71.6673 18.7 71.3466 18.3447C71.026 17.9894 70.6273 17.7077 70.1506 17.4997C69.674 17.2917 69.1193 17.1877 68.4866 17.1877C67.6286 17.1877 66.8226 17.426 66.0686 17.9027C65.3233 18.3794 64.7166 19.1377 64.2486 20.1777C63.7893 21.209 63.5596 22.5654 63.5596 24.2467C63.5596 25.5207 63.6896 26.604 63.9496 27.4967C64.2096 28.3894 64.5606 29.113 65.0026 29.6677C65.4533 30.2224 65.9646 30.6297 66.5366 30.8897C67.1173 31.141 67.7283 31.2667 68.3696 31.2667C69.2363 31.2667 69.9556 31.1194 70.5276 30.8247C71.1083 30.53 71.559 30.1617 71.8796 29.7197C72.209 29.2777 72.417 28.8444 72.5036 28.4197V26.9247H68.4086V24.3507H75.5716V33.7887H73.5956L73.3096 31.6567C73.249 31.8127 73.106 32.025 72.8806 32.2937C72.664 32.5624 72.352 32.8354 71.9446 33.1127C71.5373 33.3814 71.0173 33.6067 70.3846 33.7887C69.7606 33.9794 69.011 34.0747 68.1356 34.0747ZM83.7371 34.0747C82.7057 34.0747 81.8001 33.9144 81.0201 33.5937C80.2401 33.2644 79.6291 32.792 79.1871 32.1767C78.7451 31.5614 78.5241 30.8204 78.5241 29.9537C78.5241 29.009 78.7797 28.2334 79.2911 27.6267C79.8111 27.0114 80.5087 26.539 81.3841 26.2097C82.2594 25.8717 83.2301 25.655 84.2961 25.5597C85.8734 25.4037 86.9741 25.2564 87.5981 25.1177C88.2307 24.9704 88.5471 24.7364 88.5471 24.4157C88.5471 24.407 88.5471 24.4027 88.5471 24.4027C88.5471 24.394 88.5471 24.3897 88.5471 24.3897C88.5471 23.783 88.2741 23.315 87.7281 22.9857C87.1821 22.6564 86.4107 22.4917 85.4141 22.4917C84.3654 22.4917 83.5594 22.678 82.9961 23.0507C82.4414 23.4147 82.1641 23.9954 82.1641 24.7927H78.7841C78.7841 23.7094 79.0701 22.795 79.6421 22.0497C80.2227 21.2957 81.0157 20.7237 82.0211 20.3337C83.0264 19.9437 84.1661 19.7487 85.4401 19.7487C86.6274 19.7487 87.7151 19.9264 88.7031 20.2817C89.6911 20.637 90.4841 21.1744 91.0821 21.8937C91.6801 22.613 91.9791 23.51 91.9791 24.5847C91.9791 24.7667 91.9791 24.9487 91.9791 25.1307C91.9791 25.3127 91.9791 25.4947 91.9791 25.6767V30.8767C91.9791 31.206 91.9877 31.531 92.0051 31.8517C92.0311 32.1637 92.0787 32.4454 92.1481 32.6967C92.2347 32.974 92.3387 33.208 92.4601 33.3987C92.5814 33.5894 92.6767 33.7194 92.7461 33.7887H89.3661C89.3054 33.728 89.2187 33.611 89.1061 33.4377C89.0021 33.2557 88.9067 33.0477 88.8201 32.8137C88.7334 32.5537 88.6684 32.2764 88.6251 31.9817C88.5817 31.6784 88.5601 31.3447 88.5601 30.9807L89.2361 31.4487C88.9761 31.9774 88.5774 32.441 88.0401 32.8397C87.5114 33.2297 86.8787 33.533 86.1421 33.7497C85.4054 33.9664 84.6037 34.0747 83.7371 34.0747ZM84.5691 31.3837C85.2797 31.3837 85.9384 31.2624 86.5451 31.0197C87.1517 30.777 87.6414 30.4044 88.0141 29.9017C88.3867 29.3904 88.5731 28.736 88.5731 27.9387V26.0927L89.4051 27.0287C88.8504 27.2367 88.1831 27.41 87.4031 27.5487C86.6231 27.6787 85.8344 27.7827 85.0371 27.8607C84.0144 27.956 83.2431 28.1337 82.7231 28.3937C82.2117 28.6537 81.9561 29.0784 81.9561 29.6677C81.9561 30.2397 82.1727 30.6687 82.6061 30.9547C83.0394 31.2407 83.6937 31.3837 84.5691 31.3837ZM103.734 33.7887V28.1857C103.734 27.6744 103.734 27.228 103.734 26.8467C103.734 26.4567 103.734 26.1317 103.734 25.8717C103.734 25.5337 103.712 25.1827 103.669 24.8187C103.625 24.446 103.53 24.1037 103.383 23.7917C103.235 23.4797 103.006 23.2284 102.694 23.0377C102.39 22.8384 101.97 22.7387 101.433 22.7387C100.913 22.7387 100.471 22.847 100.107 23.0637C99.7512 23.2717 99.4565 23.5534 99.2225 23.9087C98.9972 24.2554 98.8325 24.654 98.7285 25.1047C98.6245 25.5467 98.5725 26.0017 98.5725 26.4697L97.4285 25.7027C97.4285 24.5674 97.6408 23.5534 98.0655 22.6607C98.4902 21.768 99.0925 21.0617 99.8725 20.5417C100.661 20.013 101.593 19.7487 102.668 19.7487C103.777 19.7487 104.657 19.9827 105.307 20.4507C105.957 20.91 106.42 21.534 106.698 22.3227C106.984 23.1114 107.127 23.9954 107.127 24.9747C107.127 25.3387 107.127 25.824 107.127 26.4307C107.127 27.0287 107.127 27.735 107.127 28.5497V33.7887H103.734ZM95.1535 33.7887V19.9827H98.5725V33.7887H95.1535ZM112.262 33.7887V28.1987C112.262 27.6527 112.262 27.189 112.262 26.8077C112.262 26.4264 112.262 26.1057 112.262 25.8457C112.262 25.4817 112.24 25.1177 112.197 24.7537C112.153 24.381 112.058 24.0474 111.911 23.7527C111.763 23.4494 111.534 23.2067 111.222 23.0247C110.91 22.834 110.485 22.7387 109.948 22.7387C109.419 22.7387 108.973 22.8427 108.609 23.0507C108.253 23.2587 107.967 23.536 107.751 23.8827C107.534 24.2294 107.374 24.6194 107.27 25.0527C107.174 25.486 107.127 25.9194 107.127 26.3527L105.983 25.5987C105.983 24.498 106.191 23.5057 106.607 22.6217C107.023 21.7377 107.621 21.04 108.401 20.5287C109.181 20.0087 110.108 19.7487 111.183 19.7487C112.266 19.7487 113.137 19.9697 113.796 20.4117C114.454 20.8537 114.931 21.4604 115.226 22.2317C115.529 22.9944 115.681 23.8654 115.681 24.8447C115.681 25.226 115.681 25.7114 115.681 26.3007C115.681 26.89 115.681 27.5877 115.681 28.3937V33.7887H112.262ZM118.905 33.7887V19.9827H122.285V33.7887H118.905ZM120.608 17.4347C120.053 17.4347 119.568 17.2874 119.152 16.9927C118.745 16.6894 118.541 16.269 118.541 15.7317C118.541 15.203 118.745 14.7914 119.152 14.4967C119.568 14.202 120.053 14.0547 120.608 14.0547C121.154 14.0547 121.631 14.202 122.038 14.4967C122.445 14.7914 122.649 15.203 122.649 15.7317C122.649 16.269 122.445 16.6894 122.038 16.9927C121.631 17.2874 121.154 17.4347 120.608 17.4347ZM135.436 33.7887V27.6657C135.436 27.319 135.436 27.0157 135.436 26.7557C135.436 26.487 135.436 26.2444 135.436 26.0277C135.436 25.4037 135.345 24.8447 135.163 24.3507C134.99 23.848 134.686 23.4537 134.253 23.1677C133.828 22.8817 133.239 22.7387 132.485 22.7387C131.826 22.7387 131.241 22.899 130.73 23.2197C130.219 23.5317 129.816 23.965 129.521 24.5197C129.235 25.0657 129.092 25.6984 129.092 26.4177L127.935 25.7027C127.935 24.55 128.195 23.5274 128.715 22.6347C129.244 21.7334 129.95 21.027 130.834 20.5157C131.718 20.0044 132.697 19.7487 133.772 19.7487C134.881 19.7487 135.813 19.9654 136.567 20.3987C137.33 20.832 137.902 21.4474 138.283 22.2447C138.673 23.042 138.868 23.978 138.868 25.0527C138.868 25.4687 138.868 25.9367 138.868 26.4567C138.868 26.9767 138.868 27.488 138.868 27.9907V33.7887H135.436ZM125.673 33.7887V19.9827H129.092V33.7887H125.673ZM147.729 34.0747C146.905 34.0747 146.121 33.9837 145.376 33.8017C144.639 33.6197 143.98 33.3467 143.4 32.9827C142.828 32.6187 142.373 32.168 142.035 31.6307C141.705 31.0847 141.541 30.4564 141.541 29.7457C141.541 29.6937 141.541 29.6417 141.541 29.5897C141.541 29.5377 141.541 29.49 141.541 29.4467H144.947C144.947 29.49 144.947 29.529 144.947 29.5637C144.947 29.5897 144.947 29.6287 144.947 29.6807C144.947 30.244 145.202 30.6687 145.714 30.9547C146.234 31.232 146.94 31.3707 147.833 31.3707C148.318 31.3707 148.773 31.3187 149.198 31.2147C149.631 31.1107 149.978 30.9504 150.238 30.7337C150.506 30.517 150.641 30.2397 150.641 29.9017C150.641 29.3557 150.359 28.9657 149.796 28.7317C149.241 28.4977 148.366 28.2854 147.17 28.0947C146.511 27.982 145.861 27.8304 145.22 27.6397C144.578 27.449 143.993 27.1934 143.465 26.8727C142.945 26.552 142.524 26.1534 142.204 25.6767C141.892 25.2 141.736 24.6194 141.736 23.9347C141.736 23.0247 142.004 22.262 142.542 21.6467C143.088 21.0227 143.816 20.5504 144.726 20.2297C145.644 19.909 146.654 19.7487 147.755 19.7487C148.812 19.7487 149.796 19.922 150.706 20.2687C151.616 20.6154 152.348 21.1137 152.903 21.7637C153.466 22.4137 153.748 23.198 153.748 24.1167C153.748 24.1514 153.748 24.1904 153.748 24.2337C153.748 24.2684 153.748 24.2987 153.748 24.3247H150.368C150.368 24.2987 150.368 24.2727 150.368 24.2467C150.368 24.2207 150.368 24.1904 150.368 24.1557C150.368 23.757 150.242 23.432 149.991 23.1807C149.739 22.9294 149.414 22.743 149.016 22.6217C148.617 22.5004 148.197 22.4397 147.755 22.4397C147.365 22.4397 146.962 22.483 146.546 22.5697C146.13 22.6477 145.783 22.7907 145.506 22.9987C145.228 23.198 145.09 23.4797 145.09 23.8437C145.09 24.1904 145.233 24.472 145.519 24.6887C145.805 24.9054 146.203 25.0874 146.715 25.2347C147.226 25.3734 147.815 25.499 148.483 25.6117C149.115 25.7157 149.752 25.8587 150.394 26.0407C151.044 26.2227 151.637 26.4654 152.175 26.7687C152.712 27.072 153.145 27.4707 153.475 27.9647C153.813 28.45 153.982 29.0524 153.982 29.7717C153.982 30.5344 153.808 31.1844 153.462 31.7217C153.115 32.259 152.643 32.7054 152.045 33.0607C151.455 33.4074 150.788 33.663 150.043 33.8277C149.297 33.9924 148.526 34.0747 147.729 34.0747ZM161.534 34.0747C160.503 34.0747 159.597 33.9144 158.817 33.5937C158.037 33.2644 157.426 32.792 156.984 32.1767C156.542 31.5614 156.321 30.8204 156.321 29.9537C156.321 29.009 156.577 28.2334 157.088 27.6267C157.608 27.0114 158.306 26.539 159.181 26.2097C160.056 25.8717 161.027 25.655 162.093 25.5597C163.67 25.4037 164.771 25.2564 165.395 25.1177C166.028 24.9704 166.344 24.7364 166.344 24.4157C166.344 24.407 166.344 24.4027 166.344 24.4027C166.344 24.394 166.344 24.3897 166.344 24.3897C166.344 23.783 166.071 23.315 165.525 22.9857C164.979 22.6564 164.208 22.4917 163.211 22.4917C162.162 22.4917 161.356 22.678 160.793 23.0507C160.238 23.4147 159.961 23.9954 159.961 24.7927H156.581C156.581 23.7094 156.867 22.795 157.439 22.0497C158.02 21.2957 158.813 20.7237 159.818 20.3337C160.823 19.9437 161.963 19.7487 163.237 19.7487C164.424 19.7487 165.512 19.9264 166.5 20.2817C167.488 20.637 168.281 21.1744 168.879 21.8937C169.477 22.613 169.776 23.51 169.776 24.5847C169.776 24.7667 169.776 24.9487 169.776 25.1307C169.776 25.3127 169.776 25.4947 169.776 25.6767V30.8767C169.776 31.206 169.785 31.531 169.802 31.8517C169.828 32.1637 169.876 32.4454 169.945 32.6967C170.032 32.974 170.136 33.208 170.257 33.3987C170.378 33.5894 170.474 33.7194 170.543 33.7887H167.163C167.102 33.728 167.016 33.611 166.903 33.4377C166.799 33.2557 166.704 33.0477 166.617 32.8137C166.53 32.5537 166.465 32.2764 166.422 31.9817C166.379 31.6784 166.357 31.3447 166.357 30.9807L167.033 31.4487C166.773 31.9774 166.374 32.441 165.837 32.8397C165.308 33.2297 164.676 33.533 163.939 33.7497C163.202 33.9664 162.401 34.0747 161.534 34.0747ZM162.366 31.3837C163.077 31.3837 163.735 31.2624 164.342 31.0197C164.949 30.777 165.438 30.4044 165.811 29.9017C166.184 29.3904 166.37 28.736 166.37 27.9387V26.0927L167.202 27.0287C166.647 27.2367 165.98 27.41 165.2 27.5487C164.42 27.6787 163.631 27.7827 162.834 27.8607C161.811 27.956 161.04 28.1337 160.52 28.3937C160.009 28.6537 159.753 29.0784 159.753 29.6677C159.753 30.2397 159.97 30.6687 160.403 30.9547C160.836 31.2407 161.491 31.3837 162.366 31.3837ZM182.713 33.7887V27.6657C182.713 27.319 182.713 27.0157 182.713 26.7557C182.713 26.487 182.713 26.2444 182.713 26.0277C182.713 25.4037 182.622 24.8447 182.44 24.3507C182.267 23.848 181.964 23.4537 181.53 23.1677C181.106 22.8817 180.516 22.7387 179.762 22.7387C179.104 22.7387 178.519 22.899 178.007 23.2197C177.496 23.5317 177.093 23.965 176.798 24.5197C176.512 25.0657 176.369 25.6984 176.369 26.4177L175.212 25.7027C175.212 24.55 175.472 23.5274 175.992 22.6347C176.521 21.7334 177.227 21.027 178.111 20.5157C178.995 20.0044 179.975 19.7487 181.049 19.7487C182.159 19.7487 183.09 19.9654 183.844 20.3987C184.607 20.832 185.179 21.4474 185.56 22.2447C185.95 23.042 186.145 23.978 186.145 25.0527C186.145 25.4687 186.145 25.9367 186.145 26.4567C186.145 26.9767 186.145 27.488 186.145 27.9907V33.7887H182.713ZM172.95 33.7887V19.9827H176.369V33.7887H172.95ZM189.869 39.7167C189.462 39.7167 189.098 39.695 188.777 39.6517C188.456 39.617 188.257 39.5824 188.179 39.5477V36.8827C188.292 36.9347 188.482 36.9737 188.751 36.9997C189.028 37.0344 189.314 37.0517 189.609 37.0517C190.086 37.0517 190.497 36.9564 190.844 36.7657C191.199 36.575 191.503 36.3107 191.754 35.9727C192.005 35.6434 192.205 35.2577 192.352 34.8157L192.651 33.9447L187.893 19.9827H191.468L194.731 31.5007H194.315L197.5 19.9827H201.01L196.174 34.6337C195.836 35.6477 195.424 36.536 194.939 37.2987C194.462 38.0614 193.825 38.655 193.028 39.0797C192.231 39.5044 191.178 39.7167 189.869 39.7167Z" fill="white"/>
<g filter="url(#filter0_b_2301_491)">
<circle cx="24" cy="24" r="24" fill="url(#paint0_linear_2301_491)" fill-opacity="0.15"/>
<circle cx="24" cy="24" r="23.5" stroke="url(#paint1_linear_2301_491)"/>
</g>
<path fill-rule="evenodd" clip-rule="evenodd" d="M36.7532 9.64032C36.8516 9.64032 36.9445 9.68404 37.0101 9.74962C37.0757 9.81521 37.1194 9.90812 37.1194 10.0065V20.5708C37.1194 21.3468 36.8079 22.0901 36.2614 22.6366L33.3539 25.5441V13.772C33.3539 13.6737 33.3101 13.5808 33.2446 13.5152C33.179 13.4496 33.0915 13.4059 32.9877 13.4059H21.2156L24.1231 10.4984C24.6696 9.94637 25.4129 9.64032 26.189 9.64032H36.7532ZM19.6196 16.2097H30.1839C30.2823 16.2097 30.3752 16.2534 30.4408 16.319C30.5064 16.3845 30.5501 16.472 30.5501 16.5758V27.1401C30.5501 27.9162 30.2386 28.6595 29.6921 29.206L26.7846 32.1135V20.3414C26.7846 20.243 26.7408 20.1501 26.6753 20.0845C26.6097 20.0189 26.5222 19.9752 26.4184 19.9752H14.6463L17.5538 17.0677C18.1003 16.5157 18.8436 16.2097 19.6196 16.2097ZM14.6463 19.9752V31.7473C14.6463 31.8457 14.69 31.9386 14.7556 32.0042C14.8212 32.0698 14.9086 32.1135 15.0125 32.1135H26.7846L23.8771 35.021C23.3305 35.573 22.5873 35.879 21.8112 35.879H11.2469C11.1485 35.879 11.0556 35.8353 10.99 35.7697C10.9245 35.7041 10.8807 35.6167 10.8807 35.5129V24.9486C10.8807 24.1725 11.1923 23.4292 11.7388 22.8827L14.6463 19.9752Z" fill="#ACB5FC"/>
<defs>
<filter id="filter0_b_2301_491" x="-82" y="-82" width="212" height="212" filterUnits="userSpaceOnUse" color-interpolation-filters="sRGB">
<feFlood flood-opacity="0" result="BackgroundImageFix"/>
<feGaussianBlur in="BackgroundImageFix" stdDeviation="41"/>
<feComposite in2="SourceAlpha" operator="in" result="effect1_backgroundBlur_2301_491"/>
<feBlend mode="normal" in="SourceGraphic" in2="effect1_backgroundBlur_2301_491" result="shape"/>
</filter>
<linearGradient id="paint0_linear_2301_491" x1="2.83326" y1="-7.14156e-06" x2="68.2513" y2="14.4046" gradientUnits="userSpaceOnUse">
<stop stop-color="#6B75B6" stop-opacity="0.56"/>
<stop offset="1" stop-color="#737BC5" stop-opacity="0.55"/>
</linearGradient>
<linearGradient id="paint1_linear_2301_491" x1="39.9235" y1="68.2845" x2="83.7755" y2="-66.9663" gradientUnits="userSpaceOnUse">
<stop stop-color="white" stop-opacity="0"/>
<stop offset="1" stop-color="#BCC0E1" stop-opacity="0.65"/>
</linearGradient>
</defs>
</svg>
